<mxfile host="app.diagrams.net" modified="2023-12-19T20:18:42.223Z" agent="Mozilla/5.0 (X11; Linux x86_64) AppleWebKit/537.36 (KHTML, like Gecko) Chrome/120.0.0.0 Safari/537.36" etag="Wfop_5cfD6j8Lm6N1utz" version="21.3.4" type="device">
  <diagram name="Architecture" id="CKOwGVDVk4OWQvsBjlr9">
    <mxGraphModel dx="1092" dy="474" grid="1" gridSize="10" guides="1" tooltips="1" connect="1" arrows="1" fold="1" page="1" pageScale="1" pageWidth="850" pageHeight="1100" math="0" shadow="0">
      <root>
        <mxCell id="0" />
        <mxCell id="1" parent="0" />
        <mxCell id="V2XP5RtjtoZQ21mpzTwn-7" style="edgeStyle=orthogonalEdgeStyle;rounded=0;orthogonalLoop=1;jettySize=auto;html=1;exitX=0.25;exitY=1;exitDx=0;exitDy=0;entryX=0.5;entryY=0;entryDx=0;entryDy=0;" edge="1" parent="1" source="V2XP5RtjtoZQ21mpzTwn-3" target="V2XP5RtjtoZQ21mpzTwn-5">
          <mxGeometry relative="1" as="geometry">
            <Array as="points">
              <mxPoint x="220" y="200" />
            </Array>
          </mxGeometry>
        </mxCell>
        <mxCell id="V2XP5RtjtoZQ21mpzTwn-8" style="edgeStyle=orthogonalEdgeStyle;rounded=0;orthogonalLoop=1;jettySize=auto;html=1;exitX=0.75;exitY=1;exitDx=0;exitDy=0;entryX=0.5;entryY=0;entryDx=0;entryDy=0;" edge="1" parent="1" source="V2XP5RtjtoZQ21mpzTwn-3" target="V2XP5RtjtoZQ21mpzTwn-6">
          <mxGeometry relative="1" as="geometry">
            <Array as="points">
              <mxPoint x="340" y="200" />
            </Array>
          </mxGeometry>
        </mxCell>
        <mxCell id="V2XP5RtjtoZQ21mpzTwn-10" style="edgeStyle=orthogonalEdgeStyle;rounded=0;orthogonalLoop=1;jettySize=auto;html=1;exitX=0.5;exitY=0;exitDx=0;exitDy=0;entryX=0.5;entryY=1;entryDx=0;entryDy=0;" edge="1" parent="1" source="V2XP5RtjtoZQ21mpzTwn-3" target="V2XP5RtjtoZQ21mpzTwn-9">
          <mxGeometry relative="1" as="geometry" />
        </mxCell>
        <mxCell id="V2XP5RtjtoZQ21mpzTwn-20" style="edgeStyle=orthogonalEdgeStyle;rounded=0;orthogonalLoop=1;jettySize=auto;html=1;exitX=1;exitY=0.25;exitDx=0;exitDy=0;entryX=0;entryY=0.25;entryDx=0;entryDy=0;" edge="1" parent="1" source="V2XP5RtjtoZQ21mpzTwn-3" target="V2XP5RtjtoZQ21mpzTwn-4">
          <mxGeometry relative="1" as="geometry" />
        </mxCell>
        <mxCell id="V2XP5RtjtoZQ21mpzTwn-22" value="Start game" style="edgeLabel;html=1;align=center;verticalAlign=middle;resizable=0;points=[];" vertex="1" connectable="0" parent="V2XP5RtjtoZQ21mpzTwn-20">
          <mxGeometry x="-0.1889" relative="1" as="geometry">
            <mxPoint x="23" y="-10" as="offset" />
          </mxGeometry>
        </mxCell>
        <mxCell id="V2XP5RtjtoZQ21mpzTwn-3" value="Web App" style="rounded=0;whiteSpace=wrap;html=1;" vertex="1" parent="1">
          <mxGeometry x="200" y="120" width="160" height="80" as="geometry" />
        </mxCell>
        <mxCell id="V2XP5RtjtoZQ21mpzTwn-19" style="edgeStyle=orthogonalEdgeStyle;rounded=0;orthogonalLoop=1;jettySize=auto;html=1;exitX=1;exitY=0.5;exitDx=0;exitDy=0;entryX=0;entryY=0.5;entryDx=0;entryDy=0;" edge="1" parent="1" source="V2XP5RtjtoZQ21mpzTwn-4" target="V2XP5RtjtoZQ21mpzTwn-18">
          <mxGeometry relative="1" as="geometry" />
        </mxCell>
        <mxCell id="V2XP5RtjtoZQ21mpzTwn-23" style="edgeStyle=orthogonalEdgeStyle;rounded=0;orthogonalLoop=1;jettySize=auto;html=1;exitX=0;exitY=0.75;exitDx=0;exitDy=0;entryX=1;entryY=0.75;entryDx=0;entryDy=0;" edge="1" parent="1" source="V2XP5RtjtoZQ21mpzTwn-4" target="V2XP5RtjtoZQ21mpzTwn-3">
          <mxGeometry relative="1" as="geometry" />
        </mxCell>
        <mxCell id="V2XP5RtjtoZQ21mpzTwn-24" value="Update player&lt;br&gt;stats after game" style="edgeLabel;html=1;align=center;verticalAlign=middle;resizable=0;points=[];" vertex="1" connectable="0" parent="V2XP5RtjtoZQ21mpzTwn-23">
          <mxGeometry x="0.1333" y="-3" relative="1" as="geometry">
            <mxPoint x="15" y="-12" as="offset" />
          </mxGeometry>
        </mxCell>
        <mxCell id="V2XP5RtjtoZQ21mpzTwn-4" value="Game App" style="rounded=0;whiteSpace=wrap;html=1;" vertex="1" parent="1">
          <mxGeometry x="640" y="120" width="160" height="80" as="geometry" />
        </mxCell>
        <mxCell id="V2XP5RtjtoZQ21mpzTwn-5" value="Frontend" style="rounded=0;whiteSpace=wrap;html=1;" vertex="1" parent="1">
          <mxGeometry x="180" y="280" width="80" height="40" as="geometry" />
        </mxCell>
        <mxCell id="V2XP5RtjtoZQ21mpzTwn-6" value="Backend" style="rounded=0;whiteSpace=wrap;html=1;" vertex="1" parent="1">
          <mxGeometry x="300" y="280" width="80" height="40" as="geometry" />
        </mxCell>
        <mxCell id="V2XP5RtjtoZQ21mpzTwn-9" value="MySQL" style="shape=datastore;whiteSpace=wrap;html=1;" vertex="1" parent="1">
          <mxGeometry x="250" y="10" width="60" height="60" as="geometry" />
        </mxCell>
        <mxCell id="V2XP5RtjtoZQ21mpzTwn-11" value="User authentication" style="ellipse;whiteSpace=wrap;html=1;" vertex="1" parent="1">
          <mxGeometry x="220" y="360" width="120" height="60" as="geometry" />
        </mxCell>
        <mxCell id="V2XP5RtjtoZQ21mpzTwn-12" value="Manage users" style="ellipse;whiteSpace=wrap;html=1;" vertex="1" parent="1">
          <mxGeometry x="220" y="440" width="120" height="60" as="geometry" />
        </mxCell>
        <mxCell id="V2XP5RtjtoZQ21mpzTwn-13" value="Manage question banks" style="ellipse;whiteSpace=wrap;html=1;" vertex="1" parent="1">
          <mxGeometry x="220" y="600" width="120" height="60" as="geometry" />
        </mxCell>
        <mxCell id="V2XP5RtjtoZQ21mpzTwn-14" value="Browse question banks" style="ellipse;whiteSpace=wrap;html=1;" vertex="1" parent="1">
          <mxGeometry x="220" y="520" width="120" height="60" as="geometry" />
        </mxCell>
        <mxCell id="V2XP5RtjtoZQ21mpzTwn-15" value="Create game" style="ellipse;whiteSpace=wrap;html=1;" vertex="1" parent="1">
          <mxGeometry x="220" y="680" width="120" height="60" as="geometry" />
        </mxCell>
        <mxCell id="V2XP5RtjtoZQ21mpzTwn-17" value="Participate in real-time game" style="ellipse;whiteSpace=wrap;html=1;" vertex="1" parent="1">
          <mxGeometry x="660" y="20" width="120" height="60" as="geometry" />
        </mxCell>
        <mxCell id="V2XP5RtjtoZQ21mpzTwn-18" value="Redis" style="shape=datastore;whiteSpace=wrap;html=1;" vertex="1" parent="1">
          <mxGeometry x="840" y="140" width="40" height="40" as="geometry" />
        </mxCell>
        <mxCell id="V2XP5RtjtoZQ21mpzTwn-25" value="" style="shape=link;html=1;rounded=0;" edge="1" parent="1">
          <mxGeometry width="100" relative="1" as="geometry">
            <mxPoint x="440" y="320" as="sourcePoint" />
            <mxPoint x="440" y="40" as="targetPoint" />
          </mxGeometry>
        </mxCell>
        <mxCell id="V2XP5RtjtoZQ21mpzTwn-26" value="" style="shape=link;html=1;rounded=0;" edge="1" parent="1">
          <mxGeometry width="100" relative="1" as="geometry">
            <mxPoint x="560" y="320" as="sourcePoint" />
            <mxPoint x="560" y="40" as="targetPoint" />
          </mxGeometry>
        </mxCell>
        <mxCell id="V2XP5RtjtoZQ21mpzTwn-27" value="Message Broker&lt;br&gt;&lt;font style=&quot;font-size: 10px;&quot;&gt;(Redis, SQS,&lt;br&gt;Service Bus, etc.)&lt;/font&gt;" style="rounded=0;whiteSpace=wrap;html=1;" vertex="1" parent="1">
          <mxGeometry x="440" y="40" width="120" height="60" as="geometry" />
        </mxCell>
        <mxCell id="V2XP5RtjtoZQ21mpzTwn-28" value="" style="endArrow=none;html=1;rounded=0;" edge="1" parent="1">
          <mxGeometry width="50" height="50" relative="1" as="geometry">
            <mxPoint x="440" y="320" as="sourcePoint" />
            <mxPoint x="560" y="320" as="targetPoint" />
          </mxGeometry>
        </mxCell>
        <mxCell id="V2XP5RtjtoZQ21mpzTwn-31" style="edgeStyle=orthogonalEdgeStyle;rounded=0;orthogonalLoop=1;jettySize=auto;html=1;exitX=0.5;exitY=0;exitDx=0;exitDy=0;entryX=0.5;entryY=1;entryDx=0;entryDy=0;" edge="1" parent="1" source="V2XP5RtjtoZQ21mpzTwn-29" target="V2XP5RtjtoZQ21mpzTwn-30">
          <mxGeometry relative="1" as="geometry" />
        </mxCell>
        <mxCell id="V2XP5RtjtoZQ21mpzTwn-29" value="Game&lt;br&gt;Web Frontend" style="rounded=0;whiteSpace=wrap;html=1;" vertex="1" parent="1">
          <mxGeometry x="440" y="480" width="120" height="40" as="geometry" />
        </mxCell>
        <mxCell id="V2XP5RtjtoZQ21mpzTwn-32" style="edgeStyle=orthogonalEdgeStyle;rounded=0;orthogonalLoop=1;jettySize=auto;html=1;exitX=0.5;exitY=1;exitDx=0;exitDy=0;entryX=0.5;entryY=0;entryDx=0;entryDy=0;" edge="1" parent="1" source="V2XP5RtjtoZQ21mpzTwn-30" target="V2XP5RtjtoZQ21mpzTwn-29">
          <mxGeometry relative="1" as="geometry" />
        </mxCell>
        <mxCell id="V2XP5RtjtoZQ21mpzTwn-33" value="WebSocket" style="edgeLabel;html=1;align=center;verticalAlign=middle;resizable=0;points=[];" vertex="1" connectable="0" parent="V2XP5RtjtoZQ21mpzTwn-32">
          <mxGeometry x="0.2326" y="2" relative="1" as="geometry">
            <mxPoint x="38" y="-10" as="offset" />
          </mxGeometry>
        </mxCell>
        <mxCell id="V2XP5RtjtoZQ21mpzTwn-34" style="edgeStyle=orthogonalEdgeStyle;rounded=0;orthogonalLoop=1;jettySize=auto;html=1;exitX=0.5;exitY=0;exitDx=0;exitDy=0;entryX=0.5;entryY=1;entryDx=0;entryDy=0;" edge="1" parent="1" source="V2XP5RtjtoZQ21mpzTwn-30" target="V2XP5RtjtoZQ21mpzTwn-4">
          <mxGeometry relative="1" as="geometry">
            <Array as="points">
              <mxPoint x="500" y="260" />
              <mxPoint x="720" y="260" />
            </Array>
          </mxGeometry>
        </mxCell>
        <mxCell id="V2XP5RtjtoZQ21mpzTwn-30" value="Web Connector&lt;br&gt;&lt;font style=&quot;font-size: 9px;&quot;&gt;(translates WebSocket to internal messages)&lt;/font&gt;" style="rounded=0;whiteSpace=wrap;html=1;" vertex="1" parent="1">
          <mxGeometry x="440" y="360" width="120" height="80" as="geometry" />
        </mxCell>
        <mxCell id="V2XP5RtjtoZQ21mpzTwn-54" style="edgeStyle=orthogonalEdgeStyle;rounded=0;orthogonalLoop=1;jettySize=auto;html=1;exitX=0.5;exitY=0;exitDx=0;exitDy=0;entryX=0.25;entryY=1;entryDx=0;entryDy=0;" edge="1" parent="1" source="V2XP5RtjtoZQ21mpzTwn-35" target="V2XP5RtjtoZQ21mpzTwn-4">
          <mxGeometry relative="1" as="geometry">
            <Array as="points">
              <mxPoint x="720" y="300" />
              <mxPoint x="520" y="300" />
              <mxPoint x="520" y="230" />
              <mxPoint x="680" y="230" />
            </Array>
          </mxGeometry>
        </mxCell>
        <mxCell id="V2XP5RtjtoZQ21mpzTwn-35" value="Discord Bot (?)" style="rounded=0;whiteSpace=wrap;html=1;" vertex="1" parent="1">
          <mxGeometry x="660" y="360" width="120" height="40" as="geometry" />
        </mxCell>
        <mxCell id="V2XP5RtjtoZQ21mpzTwn-44" style="edgeStyle=orthogonalEdgeStyle;rounded=0;orthogonalLoop=1;jettySize=auto;html=1;entryX=0;entryY=0.5;entryDx=0;entryDy=0;" edge="1" parent="1" source="V2XP5RtjtoZQ21mpzTwn-37" target="V2XP5RtjtoZQ21mpzTwn-5">
          <mxGeometry relative="1" as="geometry" />
        </mxCell>
        <mxCell id="V2XP5RtjtoZQ21mpzTwn-37" value="Player" style="shape=umlActor;verticalLabelPosition=bottom;verticalAlign=top;html=1;outlineConnect=0;" vertex="1" parent="1">
          <mxGeometry x="100" y="270" width="30" height="60" as="geometry" />
        </mxCell>
        <mxCell id="V2XP5RtjtoZQ21mpzTwn-49" style="edgeStyle=orthogonalEdgeStyle;rounded=0;orthogonalLoop=1;jettySize=auto;html=1;entryX=0.5;entryY=1;entryDx=0;entryDy=0;" edge="1" parent="1" source="V2XP5RtjtoZQ21mpzTwn-45" target="V2XP5RtjtoZQ21mpzTwn-29">
          <mxGeometry relative="1" as="geometry" />
        </mxCell>
        <mxCell id="V2XP5RtjtoZQ21mpzTwn-45" value="Player" style="shape=umlActor;verticalLabelPosition=bottom;verticalAlign=top;html=1;outlineConnect=0;" vertex="1" parent="1">
          <mxGeometry x="485" y="570" width="30" height="60" as="geometry" />
        </mxCell>
        <mxCell id="V2XP5RtjtoZQ21mpzTwn-52" style="edgeStyle=orthogonalEdgeStyle;rounded=0;orthogonalLoop=1;jettySize=auto;html=1;entryX=0.25;entryY=1;entryDx=0;entryDy=0;" edge="1" parent="1" source="V2XP5RtjtoZQ21mpzTwn-50" target="V2XP5RtjtoZQ21mpzTwn-35">
          <mxGeometry relative="1" as="geometry" />
        </mxCell>
        <mxCell id="V2XP5RtjtoZQ21mpzTwn-50" value="Player" style="shape=umlActor;verticalLabelPosition=bottom;verticalAlign=top;html=1;outlineConnect=0;" vertex="1" parent="1">
          <mxGeometry x="660" y="440" width="30" height="60" as="geometry" />
        </mxCell>
        <mxCell id="V2XP5RtjtoZQ21mpzTwn-53" style="edgeStyle=orthogonalEdgeStyle;rounded=0;orthogonalLoop=1;jettySize=auto;html=1;entryX=0.75;entryY=1;entryDx=0;entryDy=0;" edge="1" parent="1" source="V2XP5RtjtoZQ21mpzTwn-51" target="V2XP5RtjtoZQ21mpzTwn-35">
          <mxGeometry relative="1" as="geometry" />
        </mxCell>
        <mxCell id="V2XP5RtjtoZQ21mpzTwn-51" value="Discord" style="shape=umlActor;verticalLabelPosition=bottom;verticalAlign=top;html=1;outlineConnect=0;" vertex="1" parent="1">
          <mxGeometry x="750" y="440" width="30" height="60" as="geometry" />
        </mxCell>
      </root>
    </mxGraphModel>
  </diagram>
</mxfile>
